<?xml version="1.0" encoding="UTF-8" standalone="no"?>
<!-- Created with Inkscape (http://www.inkscape.org/) -->

<svg
   version="1.1"
   id="svg399"
   width="858"
   height="313"
   viewBox="0 0 858 313"
   xmlns="http://www.w3.org/2000/svg"
   xmlns:svg="http://www.w3.org/2000/svg">
  <defs
     id="defs403" />
  <g
     id="g405">
    <path
       style="fill:#000000"
       d="m 76,264 c 0,-1.77778 0.666667,-2 6,-2 5.333333,0 6,0.22222 6,2 0,1.77778 -0.666667,2 -6,2 -5.333333,0 -6,-0.22222 -6,-2 z m 30,0 c 0,-1.64634 0.51831,-2.06549 2.25,-1.81955 1.2375,0.17575 2.25,0.99455 2.25,1.81955 0,0.825 -1.0125,1.6438 -2.25,1.81955 C 106.51831,266.06549 106,265.64634 106,264 Z m 240,0 c 0,-1.61905 0.66667,-2 3.5,-2 2.83333,0 3.5,0.38095 3.5,2 0,1.61905 -0.66667,2 -3.5,2 -2.83333,0 -3.5,-0.38095 -3.5,-2 z m 160,0 c 0,-1.64634 0.51831,-2.06549 2.25,-1.81955 1.2375,0.17575 2.25,0.99455 2.25,1.81955 0,0.825 -1.0125,1.6438 -2.25,1.81955 C 506.51831,266.06549 506,265.64634 506,264 Z m 31,0 c 0,-1.75758 0.66667,-2 5.5,-2 4.83333,0 5.5,0.24242 5.5,2 0,1.75758 -0.66667,2 -5.5,2 -4.83333,0 -5.5,-0.24242 -5.5,-2 z m 34,0 c 0,-1.61905 0.66667,-2 3.5,-2 2.83333,0 3.5,0.38095 3.5,2 0,1.61905 -0.66667,2 -3.5,2 -2.83333,0 -3.5,-0.38095 -3.5,-2 z m 85,0 c 0,-1.77778 0.66667,-2 6,-2 5.33333,0 6,0.22222 6,2 0,1.77778 -0.66667,2 -6,2 -5.33333,0 -6,-0.22222 -6,-2 z m 185,0 c 0,-1.64634 0.51831,-2.06549 2.25,-1.81955 1.2375,0.17575 2.25,0.99455 2.25,1.81955 0,0.825 -1.0125,1.6438 -2.25,1.81955 C 841.51831,266.06549 841,265.64634 841,264 Z m -644.81955,-2.25 c 0.25029,-1.76232 0.96979,-2.25 3.31955,-2.25 2.34976,0 3.06926,0.48768 3.31955,2.25 0.28116,1.97968 -0.11765,2.25 -3.31955,2.25 -3.2019,0 -3.60071,-0.27032 -3.31955,-2.25 z M 466,262.05902 c 0,-2.69269 1.89174,-3.59586 3.71429,-1.77331 C 471.53684,262.10826 470.63367,264 467.94098,264 466.68634,264 466,263.31366 466,262.05902 Z m 172.44069,0.84502 c -0.8816,-1.42646 2.03689,-4.34495 3.46335,-3.46335 1.90572,1.1778 1.27899,4.55931 -0.84502,4.55931 -1.06754,0 -2.24579,-0.49318 -2.61833,-1.09596 z M 711.18045,261.75 c 0.25029,-1.76232 0.96979,-2.25 3.31955,-2.25 2.34976,0 3.06926,0.48768 3.31955,2.25 0.28116,1.97968 -0.11765,2.25 -3.31955,2.25 -3.2019,0 -3.60071,-0.27032 -3.31955,-2.25 z m 50,0 c 0.28715,-2.02187 0.87719,-2.25 5.81955,-2.25 4.94236,0 5.5324,0.22813 5.81955,2.25 0.30161,2.1237 -0.0251,2.25 -5.81955,2.25 -5.79449,0 -6.12116,-0.1263 -5.81955,-2.25 z M 61.712576,261.37924 C 61.320659,260.98733 61,259.84167 61,258.83333 61,257.39796 61.774835,257 64.569551,257 c 3.129772,0 3.530181,0.27721 3.25,2.25 -0.221069,1.55657 -1.101558,2.3412 -2.856975,2.54591 -1.395583,0.16275 -2.858083,-0.0247 -3.25,-0.41667 z M 264.064,260.57711 C 262.51166,258.70666 263.49667,257 266.12857,257 c 1.49494,0 1.92858,0.55692 1.69098,2.17167 -0.39931,2.71374 -2.13171,3.36205 -3.75555,1.40544 z m 60.01432,0.0173 C 322.12983,258.24658 323.70792,257 328.62857,257 c 4.1056,0 4.48184,0.20199 4.19098,2.25 -0.25354,1.78523 -1.0602,2.31209 -3.90514,2.55056 -2.28126,0.19123 -4.04049,-0.24754 -4.83609,-1.20619 z M 131.18045,256.75 c 0.25354,-1.78523 1.0602,-2.31209 3.90514,-2.55056 2.28126,-0.19123 4.04049,0.24754 4.83609,1.20619 1.94849,2.34779 0.3704,3.59437 -4.55025,3.59437 -4.1056,0 -4.48184,-0.20199 -4.19098,-2.25 z m 147.29248,1.2062 c -1.24256,-2.01051 1.73664,-4.06732 5.44148,-3.75676 2.84494,0.23847 3.6516,0.76533 3.90514,2.55056 0.29086,2.04801 -0.0854,2.25 -4.19098,2.25 -2.4808,0 -4.80083,-0.46971 -5.15564,-1.0438 z m 119.96776,-0.0522 c -0.8816,-1.42646 2.03689,-4.34495 3.46335,-3.46335 1.90572,1.1778 1.27899,4.55931 -0.84502,4.55931 -1.06754,0 -2.24579,-0.49318 -2.61833,-1.09596 z m 10.03224,0.0522 C 407.59185,256.53058 409.84793,254 412,254 c 2.15207,0 4.40815,2.53058 3.52707,3.9562 C 415.17226,258.53029 413.58508,259 412,259 c -1.58508,0 -3.17226,-0.46971 -3.52707,-1.0438 z m 35,0 c -1.24256,-2.01051 1.73664,-4.06732 5.44148,-3.75676 2.84494,0.23847 3.6516,0.76533 3.90514,2.55056 0.29086,2.04801 -0.0854,2.25 -4.19098,2.25 -2.4808,0 -4.80083,-0.46971 -5.15564,-1.0438 z M 551.18045,256.75 c 0.28715,-2.02187 0.87719,-2.25 5.81955,-2.25 4.94236,0 5.5324,0.22813 5.81955,2.25 0.30161,2.1237 -0.0251,2.25 -5.81955,2.25 -5.79449,0 -6.12116,-0.1263 -5.81955,-2.25 z m 197.26024,1.15404 c -0.8816,-1.42646 2.03689,-4.34495 3.46335,-3.46335 1.90572,1.1778 1.27899,4.55931 -0.84502,4.55931 -1.06754,0 -2.24579,-0.49318 -2.61833,-1.09596 z M 791.18045,256.75 c 0.25029,-1.76232 0.96979,-2.25 3.31955,-2.25 2.34976,0 3.06926,0.48768 3.31955,2.25 0.28116,1.97968 -0.11765,2.25 -3.31955,2.25 -3.2019,0 -3.60071,-0.27032 -3.31955,-2.25 z m -317.1441,-1.2062 C 472.04464,253.14394 473.8083,252 479.5,252 c 2.96008,0 5.67226,0.46971 6.02707,1.0438 1.2411,2.00815 -1.72666,3.9562 -6.02707,3.9562 -2.50548,0 -4.75204,-0.59876 -5.46365,-1.4562 z m 200.04197,0.0506 c -1.94849,-2.34782 -0.3704,-3.5944 4.55025,-3.5944 4.1056,0 4.48184,0.20199 4.19098,2.25 -0.25354,1.78523 -1.0602,2.31209 -3.90514,2.55056 -2.28126,0.19123 -4.04049,-0.24754 -4.83609,-1.20619 z M 0,246.5 V 244 H 81.325686 162.65137 L 165,241.5 c 1.29175,-1.375 2.964,-2.5 3.71613,-2.5 0.75212,0 2.33353,-0.9 3.51424,-2 1.77138,-1.65029 3.529,-2 10.05181,-2 6.93634,0 7.96619,0.23376 8.40389,1.90755 0.27436,1.04915 1.24473,2.16108 2.15638,2.47096 0.91165,0.30989 2.33255,0.95655 3.15755,1.43703 0.825,0.48049 2.50639,1.39355 3.73643,2.02903 C 202.50426,244.27454 221,244.40974 221,243 c 0,-0.55 0.8449,-1 1.87756,-1 1.03265,0 2.43775,-0.675 3.12244,-1.5 0.68469,-0.825 1.88361,-1.5 2.66426,-1.5 0.78065,0 2.3854,-0.9 3.56611,-2 1.77138,-1.65029 3.529,-2 10.05181,-2 6.93634,0 7.96619,0.23376 8.40389,1.90755 0.27436,1.04915 1.24473,2.16108 2.15638,2.47096 0.91165,0.30989 2.33255,0.95655 3.15755,1.43703 0.825,0.48049 2.50639,1.39355 3.73643,2.02903 1.67683,0.86632 76.80582,1.15543 300.25,1.15543 L 858,244 v 2.5 2.5 H 557.39392 256.78784 l -1.9665,-2.5 c -1.08158,-1.375 -2.7554,-2.5 -3.71961,-2.5 -0.9642,0 -2.80998,-1.125 -4.10173,-2.5 -3.03425,-3.22981 -6.96575,-3.22981 -10,0 -1.35987,1.44752 -3.46484,2.5 -5,2.5 -1.53516,0 -3.64013,1.05248 -5,2.5 -2.28723,2.43465 -2.71281,2.5 -16.28039,2.5 -13.66949,0 -13.96879,-0.0471 -15.89827,-2.5 -1.08158,-1.375 -2.7554,-2.5 -3.71961,-2.5 -0.9642,0 -2.80998,-1.125 -4.10173,-2.5 -3.03425,-3.22981 -6.96575,-3.22981 -10,0 -1.29175,1.375 -3.13753,2.5 -4.10173,2.5 -0.96421,0 -2.63803,1.125 -3.71961,2.5 l -1.9665,2.5 H 83.60608 0 Z M 353,71.7 c 0,-1.855058 2.09426,-3.7 4.2,-3.7 2.3022,0 2.2915,1.245225 -0.0287,3.345012 C 354.98104,73.327136 353,73.495729 353,71.7 Z m 23.72554,-0.45 c -1.50709,-1.664572 0.58898,-1.736325 42.93839,-1.469869 35.81953,0.225372 44.4441,0.02989 44.12009,-1 -0.2215,-0.704072 -1.83852,-1.923841 -3.59338,-2.710598 C 458.35735,65.24761 457,63.891959 457,62.882891 c 0,-1.250379 -0.93603,-1.846424 -3.25,-2.069533 -2.22937,-0.214951 -3.56,-1.019945 -4.23713,-2.563358 -0.80646,-1.838198 -1.78485,-2.25 -5.34571,-2.25 -2.39722,0 -5.61455,-0.741924 -7.14964,-1.648721 -2.64143,-1.560333 -2.94456,-1.539281 -5.65429,0.3927 L 428.5,56.7854 v -4.553413 c 0,-4.374783 -0.17653,-4.647467 -4.5,-6.95093 -4.20715,-2.241491 -4.67274,-2.29611 -7.15429,-0.839287 C 415.38585,45.298796 412.30081,46 409.99006,46 c -3.02248,0 -5.03501,0.701479 -7.17243,2.5 -1.63409,1.375 -3.58304,2.5 -4.331,2.5 -0.80332,0 -1.48817,1.330185 -1.67327,3.25 -0.27266,2.827889 -0.71944,3.289503 -3.43992,3.554152 -1.71961,0.167283 -4.16055,1.404783 -5.42431,2.75 C 385.89906,62.736346 384.8245,63 377.98067,63 370.0066,63 367,64.429758 367,68.221752 c 0,1.795427 -2.65537,3.144887 -3.49979,1.778592 -0.90854,-1.470056 2.15011,-7.742835 4.34939,-8.919853 C 368.96,60.486221 372.87064,60 376.5399,60 c 5.65719,0 7.12306,-0.380054 9.64247,-2.5 1.63409,-1.375 4.06155,-2.5 5.39436,-2.5 C 393.29889,55 394,54.445018 394,53.081787 394,49.922517 395.10948,48 396.93267,48 c 0.94529,0 2.77558,-1.125 4.06733,-2.5 1.92861,-2.052917 3.29048,-2.5 7.6153,-2.5 2.89666,0 5.54478,-0.45 5.8847,-1 0.80432,-1.30141 9.19568,-1.30141 10,0 0.33992,0.55 1.42173,1 2.40403,1 C 429.08433,43 432,46.048854 432,48.328741 432,49.503226 432.85534,50 434.87756,50 c 1.58265,0 3.43775,0.675 4.12244,1.5 0.82545,0.994603 3.0651,1.5 6.6472,1.5 4.84232,0 5.50083,0.259139 6.3528,2.5 0.72289,1.901343 1.67025,2.5 3.9562,2.5 2.37209,0 3.13797,0.527007 3.63316,2.5 0.36131,1.439594 1.34817,2.5 2.3266,2.5 1.88214,0 5.62218,7.320258 4.59182,8.987414 C 466.1008,72.645916 450.57076,73 422.09597,73 381.66528,73 378.18856,72.865898 376.72554,71.25 Z M 698,51.7 c 0,-1.855058 2.09426,-3.7 4.2,-3.7 2.3022,0 2.2915,1.245225 -0.0287,3.345012 C 699.98104,53.327136 698,53.495729 698,51.7 Z m 23.72554,-0.45 c -1.50709,-1.664572 0.58898,-1.736325 42.93839,-1.469869 35.81953,0.225372 44.4441,0.02989 44.12009,-1 -0.2215,-0.704072 -1.83852,-1.923841 -3.59338,-2.710598 C 803.35735,45.24761 802,43.891959 802,42.882891 c 0,-1.250379 -0.93603,-1.846424 -3.25,-2.069533 -2.22937,-0.214951 -3.56,-1.019945 -4.23713,-2.563358 -0.80646,-1.838198 -1.78485,-2.25 -5.34571,-2.25 -2.39722,0 -5.61455,-0.741924 -7.14964,-1.648721 -2.64143,-1.560333 -2.94456,-1.539281 -5.65429,0.3927 L 773.5,36.7854 v -4.553413 c 0,-4.374783 -0.17653,-4.647467 -4.5,-6.95093 -4.20715,-2.241491 -4.67274,-2.29611 -7.15429,-0.839287 C 760.38585,25.298796 757.30081,26 754.99006,26 c -3.02248,0 -5.03501,0.701479 -7.17243,2.5 -1.63409,1.375 -3.58304,2.5 -4.331,2.5 -0.80332,0 -1.48817,1.330185 -1.67327,3.25 -0.27266,2.827889 -0.71944,3.289503 -3.43992,3.554152 -1.71961,0.167283 -4.16055,1.404783 -5.42431,2.75 C 730.89906,42.736346 729.8245,43 722.98067,43 715.0066,43 712,44.429758 712,48.221752 c 0,1.795427 -2.65537,3.144887 -3.49979,1.778592 -0.90854,-1.470056 2.15011,-7.742835 4.34939,-8.919853 C 713.96,40.486221 717.87064,40 721.5399,40 c 5.65719,0 7.12306,-0.380054 9.64247,-2.5 1.63409,-1.375 4.06155,-2.5 5.39436,-2.5 C 738.29889,35 739,34.445018 739,33.081787 739,29.922517 740.10948,28 741.93267,28 c 0.94529,0 2.77558,-1.125 4.06733,-2.5 1.92861,-2.052917 3.29048,-2.5 7.6153,-2.5 2.89666,0 5.54478,-0.45 5.8847,-1 0.80432,-1.30141 9.19568,-1.30141 10,0 0.33992,0.55 1.42173,1 2.40403,1 C 774.08433,23 777,26.048854 777,28.328741 777,29.503226 777.85534,30 779.87756,30 c 1.58265,0 3.43775,0.675 4.12244,1.5 0.82545,0.994603 3.0651,1.5 6.6472,1.5 4.84232,0 5.50083,0.259139 6.3528,2.5 0.72289,1.901343 1.67025,2.5 3.9562,2.5 2.37209,0 3.13797,0.527007 3.63316,2.5 0.36131,1.439594 1.34817,2.5 2.3266,2.5 1.88214,0 5.62218,7.320258 4.59182,8.987414 C 811.1008,52.645916 795.57076,53 767.09597,53 726.66528,53 723.18856,52.865898 721.72554,51.25 Z"
       id="path512" />
    <path
       style="fill:#000000"
       d="m 928.4985,264 c 0,-1.77778 0.6666,-2 6,-2 5.3333,0 6,0.22222 6,2 0,1.77778 -0.6667,2 -6,2 -5.3334,0 -6,-0.22222 -6,-2 z m 30,0 c 0,-1.64634 0.5183,-2.06549 2.25,-1.81955 1.2375,0.17575 2.25,0.99455 2.25,1.81955 0,0.825 -1.0125,1.6438 -2.25,1.81955 -1.7317,0.24594 -2.25,-0.17321 -2.25,-1.81955 z m 240,0 c 0,-1.61905 0.6666,-2 3.5,-2 2.8333,0 3.5,0.38095 3.5,2 0,1.61905 -0.6667,2 -3.5,2 -2.8334,0 -3.5,-0.38095 -3.5,-2 z m 160,0 c 0,-1.64634 0.5183,-2.06549 2.25,-1.81955 1.2375,0.17575 2.25,0.99455 2.25,1.81955 0,0.825 -1.0125,1.6438 -2.25,1.81955 -1.7317,0.24594 -2.25,-0.17321 -2.25,-1.81955 z m 31,0 c 0,-1.75758 0.6666,-2 5.5,-2 4.8333,0 5.5,0.24242 5.5,2 0,1.75758 -0.6667,2 -5.5,2 -4.8334,0 -5.5,-0.24242 -5.5,-2 z m 34,0 c 0,-1.61905 0.6666,-2 3.5,-2 2.8333,0 3.5,0.38095 3.5,2 0,1.61905 -0.6667,2 -3.5,2 -2.8334,0 -3.5,-0.38095 -3.5,-2 z m 85,0 c 0,-1.77778 0.6666,-2 6,-2 5.3333,0 6,0.22222 6,2 0,1.77778 -0.6667,2 -6,2 -5.3334,0 -6,-0.22222 -6,-2 z m 185,0 c 0,-1.64634 0.5183,-2.06549 2.25,-1.81955 1.2374,0.17575 2.25,0.99455 2.25,1.81955 0,0.825 -1.0126,1.6438 -2.25,1.81955 -1.7317,0.24594 -2.25,-0.17321 -2.25,-1.81955 z m -644.8196,-2.25 c 0.2503,-1.76232 0.9698,-2.25 3.3196,-2.25 2.3497,0 3.0692,0.48768 3.3195,2.25 0.2812,1.97968 -0.1176,2.25 -3.3195,2.25 -3.2019,0 -3.6008,-0.27032 -3.3196,-2.25 z m 269.8196,0.30902 c 0,-2.69269 1.8917,-3.59586 3.7142,-1.77331 1.8226,1.82255 0.9194,3.71429 -1.7733,3.71429 -1.2546,0 -1.9409,-0.68634 -1.9409,-1.94098 z m 172.4406,0.84502 c -0.8816,-1.42646 2.0369,-4.34495 3.4634,-3.46335 1.9057,1.1778 1.279,4.55931 -0.845,4.55931 -1.0676,0 -2.2458,-0.49318 -2.6184,-1.09596 z m 72.7398,-1.15404 c 0.2503,-1.76232 0.9698,-2.25 3.3196,-2.25 2.3497,0 3.0692,0.48768 3.3195,2.25 0.2812,1.97968 -0.1176,2.25 -3.3195,2.25 -3.2019,0 -3.6008,-0.27032 -3.3196,-2.25 z m 50,0 c 0.2872,-2.02187 0.8772,-2.25 5.8196,-2.25 4.9423,0 5.5324,0.22813 5.8195,2.25 0.3016,2.1237 -0.025,2.25 -5.8195,2.25 -5.7945,0 -6.1212,-0.1263 -5.8196,-2.25 z M 914.211,261.37924 c -0.3919,-0.39191 -0.7125,-1.53757 -0.7125,-2.54591 0,-1.43537 0.7748,-1.83333 3.5695,-1.83333 3.1298,0 3.5302,0.27721 3.25,2.25 -0.2211,1.55657 -1.1016,2.3412 -2.857,2.54591 -1.3956,0.16275 -2.8581,-0.0247 -3.25,-0.41667 z m 202.3515,-0.80213 C 1115.0101,258.70666 1115.9951,257 1118.627,257 c 1.495,0 1.9286,0.55692 1.691,2.17167 -0.3993,2.71374 -2.1317,3.36205 -3.7555,1.40544 z m 60.0143,0.0173 C 1174.6283,258.24658 1176.2064,257 1181.127,257 c 4.1056,0 4.4819,0.20199 4.191,2.25 -0.2535,1.78523 -1.0602,2.31209 -3.9051,2.55056 -2.2813,0.19123 -4.0405,-0.24754 -4.8361,-1.20619 z M 983.6789,256.75 c 0.2535,-1.78523 1.0602,-2.31209 3.9051,-2.55056 2.2813,-0.19123 4.0405,0.24754 4.8361,1.20619 1.9485,2.34779 0.3704,3.59437 -4.5502,3.59437 -4.1056,0 -4.4819,-0.20199 -4.191,-2.25 z m 147.2925,1.2062 c -1.2426,-2.01051 1.7366,-4.06732 5.4415,-3.75676 2.8449,0.23847 3.6516,0.76533 3.9051,2.55056 0.2909,2.04801 -0.085,2.25 -4.191,2.25 -2.4808,0 -4.8008,-0.46971 -5.1556,-1.0438 z m 119.9677,-0.0522 c -0.8816,-1.42646 2.0369,-4.34495 3.4634,-3.46335 1.9057,1.1778 1.279,4.55931 -0.845,4.55931 -1.0676,0 -2.2458,-0.49318 -2.6184,-1.09596 z m 10.0323,0.0522 c -0.8811,-1.42562 1.375,-3.9562 3.5271,-3.9562 2.152,0 4.4081,2.53058 3.527,3.9562 -0.3548,0.57409 -1.942,1.0438 -3.527,1.0438 -1.5851,0 -3.1723,-0.46971 -3.5271,-1.0438 z m 35,0 c -1.2426,-2.01051 1.7366,-4.06732 5.4415,-3.75676 2.8449,0.23847 3.6516,0.76533 3.9051,2.55056 0.2909,2.04801 -0.085,2.25 -4.191,2.25 -2.4808,0 -4.8008,-0.46971 -5.1556,-1.0438 z m 107.7075,-1.2062 c 0.2872,-2.02187 0.8772,-2.25 5.8196,-2.25 4.9423,0 5.5324,0.22813 5.8195,2.25 0.3016,2.1237 -0.025,2.25 -5.8195,2.25 -5.7945,0 -6.1212,-0.1263 -5.8196,-2.25 z m 197.2602,1.15404 c -0.8816,-1.42646 2.0369,-4.34495 3.4634,-3.46335 1.9057,1.1778 1.279,4.55931 -0.845,4.55931 -1.0676,0 -2.2458,-0.49318 -2.6184,-1.09596 z m 42.7398,-1.15404 c 0.2503,-1.76232 0.9698,-2.25 3.3196,-2.25 2.3497,0 3.0692,0.48768 3.3195,2.25 0.2812,1.97968 -0.1176,2.25 -3.3195,2.25 -3.2019,0 -3.6008,-0.27032 -3.3196,-2.25 z m -317.1441,-1.2062 c -1.9917,-2.39986 -0.228,-3.5438 5.4637,-3.5438 2.96,0 5.6722,0.46971 6.027,1.0438 1.2411,2.00815 -1.7266,3.9562 -6.027,3.9562 -2.5055,0 -4.7521,-0.59876 -5.4637,-1.4562 z m 200.042,0.0506 c -1.9485,-2.34782 -0.3704,-3.5944 4.5502,-3.5944 4.1056,0 4.4819,0.20199 4.191,2.25 -0.2535,1.78523 -1.0602,2.31209 -3.9051,2.55056 -2.2813,0.19123 -4.0405,-0.24754 -4.8361,-1.20619 z M 852.49845,246.5 V 244 h 81.32565 81.3257 l 2.3487,-2.5 c 1.2917,-1.375 2.964,-2.5 3.7161,-2.5 0.7521,0 2.3335,-0.9 3.5142,-2 1.7714,-1.65029 3.529,-2 10.0518,-2 6.9364,0 7.9662,0.23376 8.4039,1.90755 0.2744,1.04915 1.2448,2.16108 2.1564,2.47096 0.9117,0.30989 2.3326,0.95655 3.1576,1.43703 0.825,0.48049 2.5063,1.39355 3.7364,2.02903 2.7678,1.42997 21.2636,1.56517 21.2636,0.15543 0,-0.55 0.8449,-1 1.8775,-1 1.0327,0 2.4378,-0.675 3.1225,-1.5 0.6846,-0.825 1.8836,-1.5 2.6642,-1.5 0.7807,0 2.3854,-0.9 3.5661,-2 1.7714,-1.65029 3.529,-2 10.0518,-2 6.9364,0 7.9662,0.23376 8.4039,1.90755 0.2744,1.04915 1.2448,2.16108 2.1564,2.47096 0.9117,0.30989 2.3326,0.95655 3.1576,1.43703 0.825,0.48049 2.5063,1.39355 3.7364,2.02903 1.6768,0.86632 76.8058,1.15543 300.25,1.15543 h 298.0136 v 2.5 2.5 h -300.6061 -300.6061 l -1.9665,-2.5 c -1.0816,-1.375 -2.7554,-2.5 -3.7196,-2.5 -0.9642,0 -2.81,-1.125 -4.1017,-2.5 -3.0343,-3.22981 -6.9658,-3.22981 -10,0 -1.3599,1.44752 -3.4649,2.5 -5,2.5 -1.5352,0 -3.6402,1.05248 -5,2.5 -2.2873,2.43465 -2.7129,2.5 -16.2804,2.5 -13.6695,0 -13.9688,-0.0471 -15.8983,-2.5 -1.0816,-1.375 -2.7554,-2.5 -3.7196,-2.5 -0.9642,0 -2.81,-1.125 -4.1017,-2.5 -3.0343,-3.22981 -6.9658,-3.22981 -10,0 -1.2918,1.375 -3.1376,2.5 -4.1018,2.5 -0.9642,0 -2.638,1.125 -3.7196,2.5 l -1.9665,2.5 H 936.1045 852.49845 Z M 1205.4985,71.7 c 0,-1.85506 2.0942,-3.7 4.2,-3.7 2.3022,0 2.2915,1.24522 -0.029,3.34501 -2.1903,1.98212 -4.1713,2.15072 -4.1713,0.35499 z m 23.7255,-0.45 c -1.5071,-1.66458 0.589,-1.73633 42.9384,-1.46987 35.8195,0.22537 44.4441,0.0299 44.1201,-1 -0.2215,-0.70407 -1.8385,-1.92384 -3.5934,-2.7106 -1.8333,-0.82192 -3.1906,-2.17757 -3.1906,-3.18664 0,-1.25038 -0.9361,-1.84643 -3.25,-2.06954 -2.2294,-0.21495 -3.56,-1.01994 -4.2372,-2.56335 -0.8064,-1.8382 -1.7848,-2.25 -5.3457,-2.25 -2.3972,0 -5.6145,-0.74193 -7.1496,-1.64872 -2.6415,-1.56034 -2.9446,-1.53929 -5.6543,0.3927 l -2.8632,2.04142 v -4.55342 c 0,-4.37478 -0.1766,-4.64746 -4.5,-6.95093 -4.2072,-2.24149 -4.6728,-2.29611 -7.1543,-0.83928 -1.4599,0.85702 -4.5449,1.55823 -6.8557,1.55823 -3.0225,0 -5.035,0.70148 -7.1724,2.5 -1.6341,1.375 -3.5831,2.5 -4.331,2.5 -0.8033,0 -1.4882,1.33018 -1.6733,3.25 -0.2726,2.82789 -0.7194,3.2895 -3.4399,3.55415 -1.7196,0.16728 -4.1606,1.40478 -5.4243,2.75 -2.0501,2.18219 -3.1246,2.44585 -9.9685,2.44585 -7.974,0 -10.9806,1.42975 -10.9806,5.22175 0,1.79543 -2.6554,3.14489 -3.4998,1.77859 -0.9086,-1.47006 2.1501,-7.74283 4.3494,-8.91985 1.1104,-0.59427 5.021,-1.08049 8.6903,-1.08049 5.6571,0 7.123,-0.38006 9.6424,-2.5 1.6341,-1.375 4.0616,-2.5 5.3944,-2.5 1.7221,0 2.4233,-0.55499 2.4233,-1.91822 0,-3.15927 1.1094,-5.08178 2.9326,-5.08178 0.9453,0 2.7756,-1.125 4.0674,-2.5 1.9286,-2.05292 3.2904,-2.5 7.6153,-2.5 2.8966,0 5.5447,-0.45 5.8847,-1 0.8043,-1.30141 9.1956,-1.30141 10,0 0.3399,0.55 1.4217,1 2.404,1 2.1803,0 5.096,3.04885 5.096,5.32874 0,1.17448 0.8553,1.67126 2.8775,1.67126 1.5827,0 3.4378,0.675 4.1225,1.5 0.8254,0.9946 3.0651,1.5 6.6472,1.5 4.8423,0 5.5008,0.25914 6.3528,2.5 0.7228,1.90134 1.6702,2.5 3.9562,2.5 2.372,0 3.1379,0.527 3.6331,2.5 0.3613,1.43959 1.3482,2.5 2.3266,2.5 1.8822,0 5.6222,7.32025 4.5918,8.98741 -0.4069,0.6585 -15.937,1.01259 -44.4118,1.01259 -40.4307,0 -43.9074,-0.1341 -45.3704,-1.75 z M 1550.4985,51.7 c 0,-1.85506 2.0942,-3.7 4.2,-3.7 2.3022,0 2.2915,1.24522 -0.029,3.34501 -2.1903,1.98212 -4.1713,2.15072 -4.1713,0.35499 z m 23.7255,-0.45 c -1.5071,-1.66458 0.589,-1.73633 42.9384,-1.46987 35.8195,0.22537 44.4441,0.0299 44.1201,-1 -0.2215,-0.70407 -1.8385,-1.92384 -3.5934,-2.7106 -1.8333,-0.82192 -3.1906,-2.17757 -3.1906,-3.18664 0,-1.25038 -0.9361,-1.84643 -3.25,-2.06953 -2.2294,-0.21496 -3.56,-1.01995 -4.2372,-2.56336 -0.8064,-1.8382 -1.7848,-2.25 -5.3457,-2.25 -2.3972,0 -5.6145,-0.74193 -7.1496,-1.64872 -2.6415,-1.56034 -2.9446,-1.53929 -5.6543,0.3927 l -2.8632,2.04142 v -4.55342 c 0,-4.37478 -0.1766,-4.64746 -4.5,-6.95093 -4.2072,-2.24149 -4.6728,-2.29611 -7.1543,-0.83928 -1.4599,0.85702 -4.5449,1.55823 -6.8557,1.55823 -3.0225,0 -5.035,0.70148 -7.1724,2.5 -1.6341,1.375 -3.5831,2.5 -4.331,2.5 -0.8033,0 -1.4882,1.33018 -1.6733,3.25 -0.2726,2.82789 -0.7194,3.2895 -3.4399,3.55415 -1.7196,0.16728 -4.1606,1.40478 -5.4243,2.75 -2.0501,2.18219 -3.1247,2.44585 -9.9685,2.44585 -7.974,0 -10.9806,1.42975 -10.9806,5.22175 0,1.79543 -2.6554,3.14489 -3.4998,1.77859 -0.9086,-1.47005 2.1501,-7.74283 4.3494,-8.91985 1.1104,-0.59427 5.021,-1.08049 8.6903,-1.08049 5.6571,0 7.123,-0.38006 9.6424,-2.5 1.6341,-1.375 4.0616,-2.5 5.3944,-2.5 1.7221,0 2.4233,-0.55498 2.4233,-1.91822 0,-3.15927 1.1094,-5.08178 2.9326,-5.08178 0.9453,0 2.7756,-1.125 4.0674,-2.5 1.9286,-2.05292 3.2904,-2.5 7.6153,-2.5 2.8966,0 5.5447,-0.45 5.8847,-1 0.8043,-1.30141 9.1956,-1.30141 10,0 0.3399,0.55 1.4217,1 2.404,1 2.1803,0 5.096,3.04885 5.096,5.32874 0,1.17448 0.8553,1.67126 2.8775,1.67126 1.5827,0 3.4378,0.675 4.1225,1.5 0.8254,0.9946 3.0651,1.5 6.6472,1.5 4.8423,0 5.5008,0.25914 6.3528,2.5 0.7228,1.90134 1.6702,2.5 3.9562,2.5 2.372,0 3.1379,0.527 3.6331,2.5 0.3613,1.43959 1.3482,2.5 2.3266,2.5 1.8822,0 5.6222,7.32025 4.5918,8.98741 -0.4069,0.6585 -15.937,1.01259 -44.4118,1.01259 -40.4307,0 -43.9074,-0.1341 -45.3704,-1.75 z"
       id="path512-3" />
    <path
       style="fill:#000000"
       d="m -771.77686,264 c 0,-1.77778 0.6666,-2 6,-2 5.3333,0 6,0.22222 6,2 0,1.77778 -0.6667,2 -6,2 -5.3334,0 -6,-0.22222 -6,-2 z m 30,0 c 0,-1.64634 0.5183,-2.06549 2.25,-1.81955 1.2375,0.17575 2.25,0.99455 2.25,1.81955 0,0.825 -1.0125,1.6438 -2.25,1.81955 -1.7317,0.24594 -2.25,-0.17321 -2.25,-1.81955 z m 240,0 c 0,-1.61905 0.6666,-2 3.5,-2 2.8333,0 3.5,0.38095 3.5,2 0,1.61905 -0.6667,2 -3.5,2 -2.8334,0 -3.5,-0.38095 -3.5,-2 z m 160,0 c 0,-1.64634 0.5183,-2.06549 2.25,-1.81955 1.2375,0.17575 2.25,0.99455 2.25,1.81955 0,0.825 -1.0125,1.6438 -2.25,1.81955 -1.7317,0.24594 -2.25,-0.17321 -2.25,-1.81955 z m 31,0 c 0,-1.75758 0.6666,-2 5.5,-2 4.8333,0 5.5,0.24242 5.5,2 0,1.75758 -0.6667,2 -5.5,2 -4.8334,0 -5.5,-0.24242 -5.5,-2 z m 34,0 c 0,-1.61905 0.6666,-2 3.5,-2 2.8333,0 3.5,0.38095 3.5,2 0,1.61905 -0.6667,2 -3.5,2 -2.8334,0 -3.5,-0.38095 -3.5,-2 z m 85,0 c 0,-1.77778 0.6666,-2 6,-2 5.3333,0 6,0.22222 6,2 0,1.77778 -0.6667,2 -6,2 -5.3334,0 -6,-0.22222 -6,-2 z m 184.9999988,0 c 0,-1.64634 0.5183,-2.06549 2.25,-1.81955 1.2374,0.17575 2.25,0.99455 2.25,1.81955 0,0.825 -1.0126,1.6438 -2.25,1.81955 -1.7317,0.24594 -2.25,-0.17321 -2.25,-1.81955 z M -651.59646,261.75 c 0.2503,-1.76232 0.9698,-2.25 3.3196,-2.25 2.3497,0 3.0692,0.48768 3.3195,2.25 0.2812,1.97968 -0.1176,2.25 -3.3195,2.25 -3.2019,0 -3.6008,-0.27032 -3.3196,-2.25 z m 269.8196,0.30902 c 0,-2.69269 1.8917,-3.59586 3.7142,-1.77331 1.8226,1.82255 0.9194,3.71429 -1.7733,3.71429 -1.2546,0 -1.9409,-0.68634 -1.9409,-1.94098 z m 172.4406,0.84502 c -0.8816,-1.42646 2.0369,-4.34495 3.4634,-3.46335 1.9057,1.1778 1.279,4.55931 -0.845,4.55931 -1.0676,0 -2.2458,-0.49318 -2.6184,-1.09596 z m 72.7398,-1.15404 c 0.2503,-1.76232 0.9698,-2.25 3.3196,-2.25 2.3497,0 3.0692,0.48768 3.3195,2.25 0.2812,1.97968 -0.1176,2.25 -3.3195,2.25 -3.2019,0 -3.6008,-0.27032 -3.3196,-2.25 z m 49.999999,0 c 0.2872,-2.02187 0.8772,-2.25 5.8196,-2.25 4.9423,0 5.5324,0.22813 5.8195,2.25 0.3016,2.1237 -0.025,2.25 -5.8195,2.25 -5.7945,0 -6.1212,-0.1263 -5.8196,-2.25 z m -699.467899,-0.37076 c -0.3919,-0.39191 -0.7125,-1.53757 -0.7125,-2.54591 0,-1.43537 0.7748,-1.83333 3.5695,-1.83333 3.1298,0 3.5302,0.27721 3.25,2.25 -0.2211,1.55657 -1.1016,2.3412 -2.857,2.54591 -1.3956,0.16275 -2.8581,-0.0247 -3.25,-0.41667 z m 202.3515,-0.80213 c -1.5524,-1.87045 -0.5674,-3.57711 2.0645,-3.57711 1.495,0 1.9286,0.55692 1.691,2.17167 -0.3993,2.71374 -2.1317,3.36205 -3.7555,1.40544 z m 60.0143,0.0173 c -1.9485,-2.34783 -0.3704,-3.59441 4.5502,-3.59441 4.1056,0 4.4819,0.20199 4.191,2.25 -0.2535,1.78523 -1.0602,2.31209 -3.9051,2.55056 -2.2813,0.19123 -4.0405,-0.24754 -4.8361,-1.20619 z M -716.59646,256.75 c 0.2535,-1.78523 1.0602,-2.31209 3.9051,-2.55056 2.2813,-0.19123 4.0405,0.24754 4.8361,1.20619 1.9485,2.34779 0.3704,3.59437 -4.5502,3.59437 -4.1056,0 -4.4819,-0.20199 -4.191,-2.25 z m 147.2925,1.2062 c -1.2426,-2.01051 1.7366,-4.06732 5.4415,-3.75676 2.8449,0.23847 3.6516,0.76533 3.9051,2.55056 0.2909,2.04801 -0.085,2.25 -4.191,2.25 -2.4808,0 -4.8008,-0.46971 -5.1556,-1.0438 z m 119.9677,-0.0522 c -0.8816,-1.42646 2.0369,-4.34495 3.4634,-3.46335 1.9057,1.1778 1.279,4.55931 -0.845,4.55931 -1.0676,0 -2.2458,-0.49318 -2.6184,-1.09596 z m 10.0323,0.0522 c -0.8811,-1.42562 1.375,-3.9562 3.5271,-3.9562 2.152,0 4.4081,2.53058 3.527,3.9562 -0.3548,0.57409 -1.942,1.0438 -3.527,1.0438 -1.5851,0 -3.1723,-0.46971 -3.5271,-1.0438 z m 35,0 c -1.2426,-2.01051 1.7366,-4.06732 5.4415,-3.75676 2.8449,0.23847 3.6516,0.76533 3.9051,2.55056 0.2909,2.04801 -0.085,2.25 -4.191,2.25 -2.4808,0 -4.8008,-0.46971 -5.1556,-1.0438 z m 107.7075,-1.2062 c 0.2872,-2.02187 0.8772,-2.25 5.8196,-2.25 4.9423,0 5.5324,0.22813 5.8195,2.25 0.3016,2.1237 -0.025,2.25 -5.8195,2.25 -5.7945,0 -6.1212,-0.1263 -5.8196,-2.25 z m 197.260199,1.15404 c -0.881599,-1.42646 2.0369,-4.34495 3.4634,-3.46335 1.9057,1.1778 1.279,4.55931 -0.845,4.55931 -1.0676,0 -2.2458,-0.49318 -2.6184,-1.09596 z m 42.7398,-1.15404 c 0.2503,-1.76232 0.9698,-2.25 3.3196,-2.25 2.3497,0 3.0692,0.48768 3.3195,2.25 0.2812,1.97968 -0.1176,2.25 -3.3195,2.25 -3.2019,0 -3.6008,-0.27032 -3.3196,-2.25 z m -317.144099,-1.2062 c -1.9917,-2.39986 -0.228,-3.5438 5.4637,-3.5438 2.96,0 5.6722,0.46971 6.027,1.0438 1.2411,2.00815 -1.7266,3.9562 -6.027,3.9562 -2.5055,0 -4.7521,-0.59876 -5.4637,-1.4562 z m 200.042,0.0506 c -1.9485,-2.34782 -0.3704,-3.5944 4.5502,-3.5944 4.1056,0 4.4819,0.20199 4.191,2.25 -0.2535,1.78523 -1.0602,2.31209 -3.9051,2.55056 -2.2813,0.19123 -4.0405,-0.24754 -4.8361,-1.20619 z M -847.77691,246.5 V 244 h 81.32565 81.3257 l 2.3487,-2.5 c 1.2917,-1.375 2.964,-2.5 3.7161,-2.5 0.7521,0 2.3335,-0.9 3.5142,-2 1.7714,-1.65029 3.529,-2 10.0518,-2 6.9364,0 7.9662,0.23376 8.4039,1.90755 0.2744,1.04915 1.2448,2.16108 2.1564,2.47096 0.9117,0.30989 2.3326,0.95655 3.1576,1.43703 0.825,0.48049 2.5063,1.39355 3.7364,2.02903 2.7678,1.42997 21.2636,1.56517 21.2636,0.15543 0,-0.55 0.8449,-1 1.8775,-1 1.0327,0 2.4378,-0.675 3.1225,-1.5 0.6846,-0.825 1.8836,-1.5 2.6642,-1.5 0.7807,0 2.3854,-0.9 3.5661,-2 1.7714,-1.65029 3.529,-2 10.0518,-2 6.9364,0 7.9662,0.23376 8.4039,1.90755 0.2744,1.04915 1.2448,2.16108 2.1564,2.47096 0.9117,0.30989 2.3326,0.95655 3.1576,1.43703 0.825,0.48049 2.5063,1.39355 3.7364,2.02903 1.6768,0.86632 76.8058,1.15543 300.25,1.15543 H 10.223139 v 2.5 2.5 h -300.606099 -300.6061 l -1.9665,-2.5 c -1.0816,-1.375 -2.7554,-2.5 -3.7196,-2.5 -0.9642,0 -2.81,-1.125 -4.1017,-2.5 -3.0343,-3.22981 -6.9658,-3.22981 -10,0 -1.3599,1.44752 -3.4649,2.5 -5,2.5 -1.5352,0 -3.6402,1.05248 -5,2.5 -2.2873,2.43465 -2.7129,2.5 -16.2804,2.5 -13.6695,0 -13.9688,-0.0471 -15.8983,-2.5 -1.0816,-1.375 -2.7554,-2.5 -3.7196,-2.5 -0.9642,0 -2.81,-1.125 -4.1017,-2.5 -3.0343,-3.22981 -6.9658,-3.22981 -10,0 -1.2918,1.375 -3.1376,2.5 -4.1018,2.5 -0.9642,0 -2.638,1.125 -3.7196,2.5 l -1.9665,2.5 h -83.6061 -83.60605 z M -494.77686,71.699999 c 0,-1.85506 2.0942,-3.7 4.2,-3.7 2.3022,0 2.2915,1.24522 -0.029,3.34501 -2.1903,1.982122 -4.1713,2.150722 -4.1713,0.35499 z m 23.7255,-0.45 c -1.5071,-1.66458 0.589,-1.73633 42.9384,-1.46987 35.8195,0.22537 44.4441,0.0299 44.1201,-1 -0.2215,-0.70407 -1.8385,-1.92384 -3.5934,-2.7106 -1.8333,-0.82192 -3.1906,-2.17757 -3.1906,-3.18664 0,-1.25038 -0.9361,-1.84643 -3.25,-2.06954 -2.2294,-0.21495 -3.56,-1.01994 -4.2372,-2.56335 -0.8064,-1.8382 -1.7848,-2.25 -5.3457,-2.25 -2.3972,0 -5.6145,-0.74193 -7.1496,-1.64872 -2.6415,-1.56034 -2.9446,-1.53929 -5.6543,0.3927 l -2.8632,2.04142 v -4.55342 c 0,-4.37478 -0.1766,-4.64746 -4.5,-6.95093 -4.2072,-2.24149 -4.6728,-2.29611 -7.1543,-0.83928 -1.4599,0.85702 -4.5449,1.55823 -6.8557,1.55823 -3.0225,0 -5.035,0.70148 -7.1724,2.5 -1.6341,1.375 -3.5831,2.5 -4.331,2.5 -0.8033,0 -1.4882,1.33018 -1.6733,3.25 -0.2726,2.82789 -0.7194,3.2895 -3.4399,3.55415 -1.7196,0.16728 -4.1606,1.40478 -5.4243,2.75 -2.0501,2.18219 -3.1246,2.44585 -9.9685,2.44585 -7.974,0 -10.9806,1.42975 -10.9806,5.22175 0,1.79543 -2.6554,3.14489 -3.4998,1.77859 -0.9086,-1.47006 2.1501,-7.74283 4.3494,-8.91985 1.1104,-0.59427 5.021,-1.08049 8.6903,-1.08049 5.6571,0 7.123,-0.38006 9.6424,-2.5 1.6341,-1.375 4.0616,-2.5 5.3944,-2.5 1.7221,0 2.4233,-0.55499 2.4233,-1.91822 0,-3.15927 1.1094,-5.08178 2.9326,-5.08178 0.9453,0 2.7756,-1.125 4.0674,-2.5 1.9286,-2.05292 3.2904,-2.5 7.6153,-2.5 2.8966,0 5.5447,-0.45 5.8847,-1 0.8043,-1.30141 9.1956,-1.30141 10,0 0.3399,0.55 1.4217,1 2.404,1 2.1803,0 5.096,3.04885 5.096,5.32874 0,1.17448 0.8553,1.67126 2.8775,1.67126 1.5827,0 3.4378,0.675 4.1225,1.5 0.8254,0.9946 3.0651,1.5 6.6472,1.5 4.8423,0 5.5008,0.25914 6.3528,2.5 0.7228,1.90134 1.6702,2.5 3.9562,2.5 2.372,0 3.1379,0.527 3.6331,2.5 0.3613,1.43959 1.3482,2.5 2.3266,2.5 1.8822,0 5.6222,7.32025 4.5918,8.98741 -0.4069,0.658502 -15.937,1.012592 -44.4118,1.012592 -40.4307,0 -43.9074,-0.1341 -45.3704,-1.750002 z m 321.2745,-19.55 c 0,-1.85506 2.0942,-3.7 4.2,-3.7 2.3022,0 2.2915,1.24522 -0.029,3.34501 -2.1903,1.98212 -4.1713,2.15072 -4.1713,0.35499 z m 23.7255,-0.45 c -1.5071,-1.66458 0.589,-1.73633 42.938399,-1.46987 35.8195,0.22537 44.4441,0.0299 44.1201,-1 -0.2215,-0.70407 -1.8385,-1.92384 -3.5934,-2.7106 -1.8333,-0.82192 -3.1906,-2.17757 -3.1906,-3.18664 0,-1.25038 -0.9361,-1.84643 -3.25,-2.06953 -2.2294,-0.21496 -3.56,-1.01995 -4.2372,-2.56336 -0.8064,-1.8382 -1.7848,-2.25 -5.3457,-2.25 -2.3972,0 -5.6145,-0.74193 -7.1496,-1.64872 -2.6415,-1.56034 -2.9446,-1.53929 -5.6543,0.3927 l -2.8632,2.04142 v -4.55342 c 0,-4.37478 -0.1766,-4.64746 -4.5,-6.95093 -4.2072,-2.24149 -4.6728,-2.29611 -7.1543,-0.83928 -1.4599,0.85702 -4.5449,1.55823 -6.8557,1.55823 -3.0225,0 -5.035,0.70148 -7.1724,2.5 -1.634099,1.375 -3.583099,2.5 -4.330999,2.5 -0.8033,0 -1.4882,1.33018 -1.6733,3.25 -0.2726,2.82789 -0.7194,3.2895 -3.4399,3.55415 -1.7196,0.16728 -4.1606,1.40478 -5.4243,2.75 -2.0501,2.18219 -3.1247,2.44585 -9.9685,2.44585 -7.974,0 -10.9806,1.42975 -10.9806,5.22175 0,1.79543 -2.6554,3.14489 -3.4998,1.77859 -0.9086,-1.47005 2.1501,-7.74283 4.3494,-8.91985 1.1104,-0.59427 5.021,-1.08049 8.6903,-1.08049 5.6571,0 7.123,-0.38006 9.6424,-2.5 1.6341,-1.375 4.0616,-2.5 5.3944,-2.5 1.7221,0 2.4233,-0.55498 2.4233,-1.91822 0,-3.15927 1.1094,-5.08178 2.9326,-5.08178 0.9453,0 2.7756,-1.125 4.0674,-2.5 1.928599,-2.05292 3.290399,-2.5 7.615299,-2.5 2.8966,0 5.5447,-0.45 5.8847,-1 0.8043,-1.30141 9.1956,-1.30141 10,0 0.3399,0.55 1.4217,1 2.404,1 2.1803,0 5.096,3.04885 5.096,5.32874 0,1.17448 0.8553,1.67126 2.8775,1.67126 1.5827,0 3.4378,0.675 4.1225,1.5 0.8254,0.9946 3.0651,1.5 6.6472,1.5 4.8423,0 5.5008,0.25914 6.3528,2.5 0.7228,1.90134 1.6702,2.5 3.9562,2.5 2.372,0 3.1379,0.527 3.6331,2.5 0.3613,1.43959 1.3482,2.5 2.3266,2.5 1.8822,0 5.6222,7.32025 4.5918,8.98741 -0.4069,0.6585 -15.937,1.01259 -44.4118,1.01259 -40.430699,0 -43.907399,-0.1341 -45.370399,-1.75 z"
       id="path512-3-6" />
  </g>
</svg>
